<mxfile host="app.diagrams.net" modified="2023-05-14T21:08:28.507Z" agent="Mozilla/5.0 (Macintosh; Intel Mac OS X 10_15_7) AppleWebKit/605.1.15 (KHTML, like Gecko) Version/16.0 Safari/605.1.15" version="21.3.0" etag="5jVdex_INR1OsjA3SkNY" type="github">
  <diagram name="Page-1" id="-xZU4WB0MzO6B-kF8xik">
    <mxGraphModel>
      <root>
        <mxCell id="0" />
        <mxCell id="1" parent="0" />
      </root>
    </mxGraphModel>
  </diagram>
</mxfile>
